<svg width="98" height="13" viewBox="0 0 98 13" fill="none" xmlns="http://www.w3.org/2000/svg">
<g opacity="0.3">
<path d="M3.14846 10.3137C2.63914 10.3137 2.20622 10.2373 1.79876 10.0591C1.3913 9.88079 1.08571 9.62613 0.856515 9.29508C0.627321 8.96402 0.5 8.55656 0.5 8.0727C0.5 7.58885 0.627321 7.1814 0.856515 6.85034C1.08571 6.51928 1.41676 6.26462 1.82422 6.11183C2.23168 5.93356 2.71554 5.85717 3.25033 5.85717H5.18574V5.44971C5.18574 5.11865 5.08387 4.83852 4.88014 4.63479C4.67641 4.43107 4.34536 4.30374 3.88698 4.30374C3.45405 4.30374 3.09752 4.4056 2.8938 4.60933C2.6646 4.81305 2.53727 5.06772 2.46087 5.39877L0.80558 4.83853C0.907444 4.482 1.11118 4.15094 1.34038 3.84535C1.59504 3.53975 1.92609 3.31056 2.35902 3.1323C2.79194 2.95404 3.30125 2.85217 3.91244 2.85217C4.82921 2.85217 5.56773 3.08137 6.12798 3.53976C6.66277 3.99815 6.9429 4.68573 6.9429 5.55157V8.17457C6.9429 8.45469 7.07022 8.60749 7.35035 8.60749H7.9106V10.0845H6.7137C6.35717 10.0845 6.07705 10.0081 5.84786 9.82986C5.61867 9.65159 5.51679 9.4224 5.51679 9.14228V9.11681H5.23667C5.2112 9.21868 5.10934 9.37147 4.98201 9.5752C4.85468 9.77892 4.65095 9.93173 4.34536 10.0591C4.0143 10.2373 3.63231 10.3137 3.14846 10.3137ZM3.45405 8.86215C3.96337 8.86215 4.37082 8.73482 4.67642 8.45469C4.98201 8.17457 5.16028 7.79258 5.16028 7.33419V7.18139H3.35218C3.02112 7.18139 2.76647 7.2578 2.56274 7.38513C2.38448 7.53792 2.28262 7.71618 2.28262 7.97084C2.28262 8.2255 2.38447 8.42923 2.5882 8.60749C2.79193 8.78575 3.07206 8.86215 3.45405 8.86215Z" fill="#4A4A4A"/>
<path d="M9.15845 10.11V3.05592H10.9156V3.97269H11.1703C11.2721 3.71803 11.5013 3.48884 11.8069 3.25964C12.1125 3.03045 12.5964 2.92859 13.233 2.92859C13.7933 2.92859 14.2516 3.05592 14.6846 3.31058C15.092 3.56524 15.4231 3.89629 15.6523 4.35468C15.8815 4.7876 15.9833 5.32239 15.9833 5.90811V10.11H14.2007V6.03544C14.2007 5.50065 14.0734 5.11867 13.8187 4.83854C13.5641 4.58388 13.1821 4.43108 12.6982 4.43108C12.138 4.43108 11.7305 4.60935 11.4249 4.96587C11.1193 5.32239 10.9665 5.83171 10.9665 6.49383V10.0845H9.15845V10.11Z" fill="#4A4A4A"/>
<path d="M20.1089 10.3137C19.5996 10.3137 19.1667 10.2373 18.7592 10.0591C18.3518 9.88079 18.0462 9.62613 17.817 9.29508C17.5878 8.96402 17.4604 8.55656 17.4604 8.0727C17.4604 7.58885 17.5878 7.1814 17.817 6.85034C18.0462 6.51928 18.3772 6.26462 18.7847 6.11183C19.1921 5.93356 19.676 5.85717 20.2108 5.85717H22.1462V5.44971C22.1462 5.11865 22.0443 4.83852 21.8406 4.63479C21.6369 4.43107 21.3058 4.30374 20.8474 4.30374C20.4145 4.30374 20.058 4.4056 19.8543 4.60933C19.6251 4.81305 19.4977 5.06772 19.4213 5.39877L17.766 4.83853C17.8679 4.482 18.0716 4.15094 18.3008 3.84535C18.5555 3.53975 18.8865 3.31056 19.3195 3.1323C19.7524 2.95404 20.2617 2.85217 20.8729 2.85217C21.7897 2.85217 22.5282 3.08137 23.0884 3.53976C23.6232 3.99815 23.9033 4.68573 23.9033 5.55157V8.17457C23.9033 8.45469 24.0307 8.60749 24.3108 8.60749H24.8711V10.0845H23.6742C23.3176 10.0845 23.0375 10.0081 22.8083 9.82986C22.5791 9.65159 22.4773 9.4224 22.4773 9.14228V9.11681H22.1717C22.1462 9.21868 22.0443 9.37147 21.917 9.5752C21.7897 9.77892 21.5859 9.93173 21.2803 10.0591C21.0002 10.2373 20.6182 10.3137 20.1089 10.3137ZM20.44 8.86215C20.9493 8.86215 21.3567 8.73482 21.6623 8.45469C21.9679 8.17457 22.1462 7.79258 22.1462 7.33419V7.18139H20.3381C20.007 7.18139 19.7524 7.2578 19.5487 7.38513C19.3704 7.53792 19.2685 7.71618 19.2685 7.97084C19.2685 8.2255 19.3704 8.42923 19.5741 8.60749C19.7524 8.78575 20.058 8.86215 20.44 8.86215Z" fill="#4A4A4A"/>
<path d="M26.1443 12.9621V3.05586H27.9014V3.89624H28.1561C28.3089 3.61611 28.5636 3.38692 28.9201 3.15772C29.2766 2.92853 29.7605 2.82666 30.3717 2.82666C30.9319 2.82666 31.4667 2.95399 31.9505 3.23412C32.4344 3.51424 32.8164 3.9217 33.122 4.45649C33.4276 4.99128 33.5549 5.65339 33.5549 6.41737V6.64656C33.5549 7.41054 33.4021 8.07266 33.122 8.60745C32.8164 9.14223 32.4344 9.54969 31.9505 9.82981C31.4667 10.1099 30.9319 10.2373 30.3717 10.2373C29.9387 10.2373 29.5822 10.1863 29.3021 10.0845C29.022 9.98261 28.7928 9.85528 28.6145 9.70248C28.4362 9.54969 28.3089 9.39689 28.207 9.21863H27.9524V12.8603H26.1443V12.9621ZM29.8369 8.73478C30.3971 8.73478 30.8555 8.55651 31.212 8.19999C31.5686 7.84346 31.7468 7.33414 31.7468 6.64656V6.49377C31.7468 5.80619 31.5686 5.29687 31.1866 4.94034C30.8046 4.58382 30.3462 4.40556 29.8114 4.40556C29.2766 4.40556 28.7928 4.58382 28.4362 4.94034C28.0542 5.29687 27.876 5.80619 27.876 6.49377V6.64656C27.876 7.33414 28.0542 7.84346 28.4362 8.19999C28.8182 8.55651 29.2766 8.73478 29.8369 8.73478Z" fill="#4A4A4A"/>
<path d="M35.2102 12.9621V3.05586H36.9674V3.89624H37.222C37.3748 3.61611 37.6295 3.38692 37.986 3.15772C38.3425 2.92853 38.8264 2.82666 39.4376 2.82666C39.9978 2.82666 40.5326 2.95399 41.0165 3.23412C41.5003 3.51424 41.8823 3.9217 42.1879 4.45649C42.4935 4.99128 42.6208 5.65339 42.6208 6.41737V6.64656C42.6208 7.41054 42.468 8.07266 42.1879 8.60745C41.8823 9.14223 41.5003 9.54969 41.0165 9.82981C40.5326 10.1099 39.9978 10.2373 39.4376 10.2373C39.0046 10.2373 38.6481 10.1863 38.368 10.0845C38.0879 9.98261 37.8587 9.85528 37.6804 9.70248C37.5021 9.54969 37.3748 9.39689 37.2729 9.21863H37.0183V12.8603H35.2102V12.9621ZM38.9028 8.73478C39.463 8.73478 39.9214 8.55651 40.2779 8.19999C40.6345 7.84346 40.8127 7.33414 40.8127 6.64656V6.49377C40.8127 5.80619 40.6345 5.29687 40.2525 4.94034C39.8705 4.58382 39.4121 4.40556 38.8773 4.40556C38.3425 4.40556 37.8587 4.58382 37.5021 4.94034C37.1202 5.29687 36.9419 5.80619 36.9419 6.49377V6.64656C36.9419 7.33414 37.1202 7.84346 37.5021 8.19999C37.9096 8.55651 38.368 8.73478 38.9028 8.73478Z" fill="#4A4A4A"/>
<path d="M44.1997 12.4019V10.7721H51.1774V12.4019H44.1997Z" fill="#4A4A4A"/>
<path d="M55.9396 10.3137C55.3793 10.3137 54.8446 10.1864 54.3607 9.90628C53.8769 9.62616 53.4694 9.2187 53.1893 8.68391C52.8837 8.14913 52.7563 7.48701 52.7563 6.72303V6.49384C52.7563 5.72986 52.9091 5.06774 53.1893 4.53296C53.4949 3.99817 53.8769 3.59072 54.3607 3.31059C54.8446 3.03046 55.3793 2.90313 55.9396 2.90313C56.3725 2.90313 56.729 2.95407 57.0092 3.05593C57.2893 3.15779 57.544 3.28513 57.7222 3.43792C57.9005 3.59072 58.0278 3.74351 58.1297 3.92177H58.3843V0.203735H60.167V10.1609H58.4098V9.32056H58.1551C58.0023 9.57522 57.7477 9.82989 57.4166 10.0336C57.0856 10.2119 56.5762 10.3137 55.9396 10.3137ZM56.4744 8.73485C57.0346 8.73485 57.493 8.55658 57.8495 8.20006C58.2061 7.84353 58.4098 7.33421 58.4098 6.64663V6.49384C58.4098 5.80626 58.2315 5.29694 57.875 4.94041C57.5185 4.58389 57.0601 4.40563 56.4999 4.40563C55.9396 4.40563 55.4812 4.58389 55.1247 4.94041C54.7682 5.29694 54.5644 5.80626 54.5644 6.49384V6.64663C54.5644 7.33421 54.7427 7.84353 55.1247 8.20006C55.5067 8.55658 55.9396 8.73485 56.4744 8.73485Z" fill="#4A4A4A"/>
<path d="M65.3873 10.3137C64.6742 10.3137 64.063 10.1609 63.5282 9.85535C62.9935 9.54976 62.586 9.1423 62.2804 8.58205C61.9748 8.04726 61.822 7.38514 61.822 6.64663V6.46837C61.822 5.72986 61.9748 5.09321 62.2549 4.53295C62.5351 3.9727 62.968 3.56525 63.5028 3.25965C64.0376 2.95406 64.6487 2.80127 65.3618 2.80127C66.0494 2.80127 66.6606 2.95406 67.1699 3.25965C67.6792 3.56525 68.0867 3.99817 68.3668 4.53295C68.6469 5.06774 68.7997 5.70439 68.7997 6.4429V7.05409H63.6556C63.681 7.53794 63.8593 7.91993 64.1904 8.22553C64.5214 8.53112 64.9543 8.68391 65.4382 8.68391C65.9475 8.68391 66.304 8.58205 66.5587 8.35286C66.7879 8.12366 66.9662 7.89447 67.0935 7.63981L68.5705 8.40379C68.4432 8.65845 68.2395 8.91311 67.9848 9.2187C67.7301 9.49882 67.3991 9.75348 66.9916 9.95721C66.5587 10.2119 66.0239 10.3137 65.3873 10.3137ZM63.6556 5.78079H66.9662C66.9407 5.37333 66.7624 5.04227 66.4823 4.78761C66.2022 4.53295 65.8202 4.40562 65.3618 4.40562C64.8779 4.40562 64.4959 4.53295 64.2158 4.78761C63.9357 5.04227 63.732 5.37333 63.6556 5.78079Z" fill="#4A4A4A"/>
<path d="M73.2819 10.3137C72.3651 10.3137 71.6011 10.11 71.0154 9.72796C70.4297 9.32051 70.0731 8.76026 69.9458 8.02174L71.6011 7.58882C71.6775 7.91988 71.7794 8.17454 71.9322 8.37827C72.085 8.55653 72.2887 8.70933 72.5179 8.78572C72.7471 8.86212 73.0017 8.91305 73.2819 8.91305C73.6893 8.91305 73.9949 8.83665 74.1986 8.68385C74.4024 8.53106 74.5042 8.3528 74.5042 8.14907C74.5042 7.91988 74.4024 7.76708 74.2241 7.63975C74.0458 7.51242 73.7402 7.43602 73.3073 7.35963L72.8999 7.28322C72.416 7.18136 71.9576 7.05403 71.5502 6.90123C71.1427 6.72297 70.8117 6.49378 70.557 6.21366C70.3023 5.90806 70.175 5.55154 70.175 5.06769C70.175 4.35464 70.4297 3.81985 70.939 3.46332C71.4483 3.08133 72.1359 2.90308 72.9508 2.90308C73.7402 2.90308 74.4024 3.08134 74.9117 3.43786C75.421 3.79439 75.7775 4.25277 75.9303 4.81303L74.275 5.32235C74.1986 4.96582 74.0458 4.71116 73.8166 4.55837C73.5874 4.40557 73.3073 4.32917 72.9508 4.32917C72.5943 4.32917 72.3396 4.3801 72.1613 4.50743C71.9831 4.63476 71.8812 4.78756 71.8812 4.99128C71.8812 5.22048 71.9831 5.39874 72.1613 5.5006C72.3396 5.60247 72.5943 5.70433 72.9253 5.75526L73.3328 5.83167C73.8676 5.93353 74.3514 6.06086 74.7843 6.21366C75.2173 6.36645 75.5483 6.59565 75.803 6.87577C76.0576 7.1559 76.185 7.56335 76.185 8.0472C76.185 8.78572 75.9049 9.34597 75.3701 9.75343C74.9117 10.11 74.1986 10.3137 73.2819 10.3137Z" fill="#4A4A4A"/>
<path d="M78.706 2.24101C78.375 2.24101 78.1203 2.13914 77.8911 1.93541C77.6619 1.73168 77.5601 1.45156 77.5601 1.1205C77.5601 0.789445 77.6619 0.509315 77.8911 0.305587C78.1203 0.101859 78.375 0 78.706 0C79.0371 0 79.3172 0.101859 79.5209 0.305587C79.7501 0.509315 79.852 0.789445 79.852 1.1205C79.852 1.45156 79.7501 1.73168 79.5209 1.93541C79.3172 2.13914 79.0371 2.24101 78.706 2.24101ZM77.8147 10.11V3.05592H79.5973V10.11H77.8147Z" fill="#4A4A4A"/>
<path d="M81.2527 6.62119V6.39199C81.2527 5.65348 81.4055 5.01683 81.6856 4.48204C81.9657 3.94725 82.3732 3.56527 82.857 3.28514C83.3409 3.00502 83.8757 2.87769 84.4614 2.87769C85.098 2.87769 85.5819 2.97955 85.913 3.20874C86.244 3.43793 86.4987 3.66713 86.626 3.92179H86.8807V3.08141H88.6378V11.3833C88.6378 11.8672 88.485 12.2492 88.2049 12.5293C87.9248 12.8094 87.5428 12.9622 87.0589 12.9622H82.3477V11.4088H86.4478C86.7024 11.4088 86.8552 11.256 86.8552 10.9759V9.14232H86.6005C86.4987 9.29512 86.3714 9.44791 86.1931 9.60071C86.0148 9.75351 85.7856 9.88084 85.5055 9.9827C85.2254 10.0846 84.8689 10.1355 84.4359 10.1355C83.8502 10.1355 83.3154 10.0082 82.8316 9.72804C82.3477 9.44791 81.9403 9.04046 81.6601 8.53114C81.38 8.02182 81.2527 7.35971 81.2527 6.62119ZM84.9707 8.58207C85.531 8.58207 85.9894 8.40381 86.3459 8.04728C86.7024 7.69076 86.9061 7.20691 86.9061 6.57026V6.41746C86.9061 5.78081 86.7279 5.27149 86.3713 4.94043C86.0148 4.58391 85.5564 4.43111 84.9962 4.43111C84.4359 4.43111 83.9775 4.60938 83.621 4.94043C83.2645 5.27149 83.0608 5.78081 83.0608 6.41746V6.57026C83.0608 7.20691 83.239 7.69076 83.621 8.04728C84.003 8.40381 84.4359 8.58207 84.9707 8.58207Z" fill="#4A4A4A"/>
<path d="M90.6753 10.11V3.05592H92.4325V3.97269H92.6871C92.789 3.71803 93.0182 3.48884 93.3238 3.25964C93.6294 3.03045 94.1132 2.92859 94.7499 2.92859C95.3101 2.92859 95.7685 3.05592 96.2014 3.31058C96.6089 3.56524 96.9399 3.89629 97.1691 4.35468C97.3983 4.7876 97.5002 5.32239 97.5002 5.90811V10.11H95.7176V6.03544C95.7176 5.50065 95.5902 5.11867 95.3356 4.83854C95.0809 4.58388 94.6989 4.43108 94.2151 4.43108C93.6548 4.43108 93.2474 4.60935 92.9418 4.96587C92.6362 5.32239 92.4834 5.83171 92.4834 6.49383V10.0845H90.6753V10.11Z" fill="#4A4A4A"/>
</g>
</svg>
