<svg width="97" height="13" viewBox="0 0 97 13" fill="none" xmlns="http://www.w3.org/2000/svg">
<g opacity="0.3">
<path d="M2.64846 10.3137C2.13914 10.3137 1.70622 10.2373 1.29876 10.0591C0.891304 9.88081 0.585709 9.62615 0.356515 9.29509C0.127321 8.96403 0 8.55657 0 8.07272C0 7.58886 0.127321 7.18141 0.356515 6.85035C0.585709 6.5193 0.916764 6.26464 1.32422 6.11184C1.73168 5.93358 2.21554 5.85718 2.75033 5.85718H4.68574V5.44972C4.68574 5.11867 4.58387 4.83854 4.38014 4.63481C4.17641 4.43108 3.84536 4.30375 3.38698 4.30375C2.95405 4.30375 2.59752 4.40561 2.3938 4.60934C2.1646 4.81307 2.03727 5.06773 1.96087 5.39879L0.30558 4.83854C0.407444 4.48202 0.611181 4.15095 0.840375 3.84536C1.09504 3.53977 1.42609 3.31058 1.85902 3.13232C2.29194 2.95405 2.80125 2.85219 3.41244 2.85219C4.32921 2.85219 5.06773 3.08139 5.62798 3.53977C6.16277 3.99816 6.4429 4.68574 6.4429 5.55159V8.17458C6.4429 8.45471 6.57022 8.60751 6.85035 8.60751H7.4106V10.0845H6.2137C5.85717 10.0845 5.57705 10.0081 5.34786 9.82987C5.11867 9.65161 5.01679 9.42242 5.01679 9.14229V9.11683H4.73667C4.7112 9.21869 4.60934 9.37148 4.48201 9.57521C4.35468 9.77894 4.15095 9.93174 3.84536 10.0591C3.5143 10.2373 3.13231 10.3137 2.64846 10.3137ZM2.95405 8.86217C3.46337 8.86217 3.87082 8.73484 4.17642 8.45471C4.48201 8.17458 4.66028 7.79259 4.66028 7.33421V7.18141H2.85218C2.52112 7.18141 2.26647 7.25781 2.06274 7.38514C1.88448 7.53794 1.78262 7.7162 1.78262 7.97086C1.78262 8.22552 1.88447 8.42924 2.0882 8.60751C2.29193 8.78577 2.57206 8.86217 2.95405 8.86217Z" fill="white"/>
<path d="M8.65844 10.11V3.05592H10.4156V3.97269H10.6702C10.7721 3.71803 11.0013 3.48884 11.3069 3.25964C11.6125 3.03045 12.0964 2.92859 12.733 2.92859C13.2933 2.92859 13.7516 3.05592 14.1846 3.31058C14.592 3.56524 14.9231 3.89629 15.1523 4.35468C15.3815 4.7876 15.4833 5.32239 15.4833 5.90811V10.11H13.7007V6.03544C13.7007 5.50065 13.5734 5.11867 13.3187 4.83854C13.0641 4.58388 12.6821 4.43108 12.1982 4.43108C11.638 4.43108 11.2305 4.60935 10.9249 4.96587C10.6193 5.32239 10.4665 5.83171 10.4665 6.49383V10.0845H8.65844V10.11Z" fill="white"/>
<path d="M19.6088 10.3137C19.0995 10.3137 18.6666 10.2373 18.2591 10.0591C17.8517 9.88081 17.5461 9.62615 17.3169 9.29509C17.0877 8.96403 16.9604 8.55657 16.9604 8.07272C16.9604 7.58886 17.0877 7.18141 17.3169 6.85035C17.5461 6.5193 17.8771 6.26464 18.2846 6.11184C18.692 5.93358 19.1759 5.85718 19.7107 5.85718H21.6461V5.44972C21.6461 5.11867 21.5442 4.83854 21.3405 4.63481C21.1368 4.43108 20.8057 4.30375 20.3473 4.30375C19.9144 4.30375 19.5579 4.40561 19.3542 4.60934C19.125 4.81307 18.9976 5.06773 18.9212 5.39879L17.2659 4.83854C17.3678 4.48202 17.5715 4.15095 17.8007 3.84536C18.0554 3.53977 18.3864 3.31058 18.8194 3.13232C19.2523 2.95405 19.7616 2.85219 20.3728 2.85219C21.2896 2.85219 22.0281 3.08139 22.5883 3.53977C23.1231 3.99816 23.4032 4.68574 23.4032 5.55159V8.17458C23.4032 8.45471 23.5306 8.60751 23.8107 8.60751H24.371V10.0845H23.1741C22.8175 10.0845 22.5374 10.0081 22.3082 9.82987C22.079 9.65161 21.9772 9.42242 21.9772 9.14229V9.11683H21.6716C21.6461 9.21869 21.5442 9.37148 21.4169 9.57521C21.2896 9.77894 21.0858 9.93174 20.7803 10.0591C20.5001 10.2373 20.1181 10.3137 19.6088 10.3137ZM19.9399 8.86217C20.4492 8.86217 20.8567 8.73484 21.1622 8.45471C21.4678 8.17458 21.6461 7.79259 21.6461 7.33421V7.18141H19.838C19.5069 7.18141 19.2523 7.25781 19.0486 7.38514C18.8703 7.53794 18.7684 7.7162 18.7684 7.97086C18.7684 8.22552 18.8703 8.42924 19.074 8.60751C19.2523 8.78577 19.5579 8.86217 19.9399 8.86217Z" fill="white"/>
<path d="M25.6443 12.9622V3.05592H27.4014V3.8963H27.6561C27.8089 3.61617 28.0635 3.38698 28.4201 3.15778C28.7766 2.92859 29.2604 2.82672 29.8716 2.82672C30.4319 2.82672 30.9667 2.95405 31.4505 3.23418C31.9344 3.5143 32.3164 3.92177 32.6219 4.45655C32.9275 4.99134 33.0549 5.65345 33.0549 6.41743V6.64662C33.0549 7.4106 32.9021 8.07272 32.6219 8.60751C32.3164 9.14229 31.9344 9.54975 31.4505 9.82987C30.9667 10.11 30.4319 10.2373 29.8716 10.2373C29.4387 10.2373 29.0822 10.1864 28.802 10.0845C28.5219 9.98267 28.2927 9.85534 28.1145 9.70254C27.9362 9.54975 27.8089 9.39695 27.707 9.21869H27.4524V12.8603H25.6443V12.9622ZM29.3368 8.73484C29.8971 8.73484 30.3555 8.55657 30.712 8.20005C31.0685 7.84353 31.2468 7.3342 31.2468 6.64662V6.49383C31.2468 5.80625 31.0685 5.29693 30.6865 4.9404C30.3045 4.58388 29.8462 4.40562 29.3114 4.40562C28.7766 4.40562 28.2927 4.58388 27.9362 4.9404C27.5542 5.29693 27.376 5.80625 27.376 6.49383V6.64662C27.376 7.3342 27.5542 7.84353 27.9362 8.20005C28.3182 8.55657 28.7766 8.73484 29.3368 8.73484Z" fill="white"/>
<path d="M34.7102 12.9622V3.05592H36.4673V3.8963H36.722C36.8748 3.61617 37.1294 3.38698 37.4859 3.15778C37.8425 2.92859 38.3263 2.82672 38.9375 2.82672C39.4978 2.82672 40.0326 2.95405 40.5164 3.23418C41.0003 3.5143 41.3822 3.92177 41.6878 4.45655C41.9934 4.99134 42.1208 5.65345 42.1208 6.41743V6.64662C42.1208 7.4106 41.968 8.07272 41.6878 8.60751C41.3822 9.14229 41.0003 9.54975 40.5164 9.82987C40.0326 10.11 39.4978 10.2373 38.9375 10.2373C38.5046 10.2373 38.1481 10.1864 37.8679 10.0845C37.5878 9.98267 37.3586 9.85534 37.1804 9.70254C37.0021 9.54975 36.8748 9.39695 36.7729 9.21869H36.5182V12.8603H34.7102V12.9622ZM38.4027 8.73484C38.963 8.73484 39.4214 8.55657 39.7779 8.20005C40.1344 7.84353 40.3127 7.3342 40.3127 6.64662V6.49383C40.3127 5.80625 40.1344 5.29693 39.7524 4.9404C39.3704 4.58388 38.912 4.40562 38.3773 4.40562C37.8425 4.40562 37.3586 4.58388 37.0021 4.9404C36.6201 5.29693 36.4418 5.80625 36.4418 6.49383V6.64662C36.4418 7.3342 36.6201 7.84353 37.0021 8.20005C37.4096 8.55657 37.8679 8.73484 38.4027 8.73484Z" fill="white"/>
<path d="M43.6997 12.4019V10.7721H50.6773V12.4019H43.6997Z" fill="white"/>
<path d="M55.4395 10.3137C54.8792 10.3137 54.3445 10.1864 53.8606 9.90627C53.3767 9.62615 52.9693 9.21869 52.6892 8.6839C52.3836 8.14911 52.2562 7.487 52.2562 6.72302V6.49383C52.2562 5.72985 52.409 5.06773 52.6892 4.53294C52.9947 3.99816 53.3767 3.59071 53.8606 3.31058C54.3445 3.03045 54.8792 2.90312 55.4395 2.90312C55.8724 2.90312 56.2289 2.95406 56.5091 3.05592C56.7892 3.15778 57.0438 3.28511 57.2221 3.43791C57.4004 3.59071 57.5277 3.7435 57.6296 3.92176H57.8842V0.203724H59.6668V10.1609H57.9097V9.32055H57.655C57.5022 9.57521 57.2476 9.82987 56.9165 10.0336C56.5855 10.2119 56.0761 10.3137 55.4395 10.3137ZM55.9743 8.73484C56.5345 8.73484 56.9929 8.55657 57.3494 8.20005C57.706 7.84352 57.9097 7.3342 57.9097 6.64662V6.49383C57.9097 5.80625 57.7314 5.29693 57.3749 4.9404C57.0184 4.58388 56.56 4.40561 55.9997 4.40561C55.4395 4.40561 54.9811 4.58388 54.6246 4.9404C54.2681 5.29693 54.0643 5.80625 54.0643 6.49383V6.64662C54.0643 7.3342 54.2426 7.84352 54.6246 8.20005C55.0066 8.55657 55.4395 8.73484 55.9743 8.73484Z" fill="white"/>
<path d="M64.8874 10.3137C64.1743 10.3137 63.5631 10.1609 63.0284 9.85534C62.4936 9.54975 62.0861 9.14229 61.7805 8.58204C61.4749 8.04725 61.3221 7.38514 61.3221 6.64662V6.46836C61.3221 5.72985 61.4749 5.0932 61.7551 4.53295C62.0352 3.97269 62.4681 3.56524 63.0029 3.25965C63.5377 2.95405 64.1488 2.80126 64.8619 2.80126C65.5495 2.80126 66.1607 2.95405 66.67 3.25965C67.1793 3.56524 67.5868 3.99816 67.8669 4.53295C68.147 5.06773 68.2998 5.70438 68.2998 6.4429V7.05408H63.1557C63.1812 7.53793 63.3594 7.91993 63.6905 8.22552C64.0215 8.53111 64.4545 8.6839 64.9383 8.6839C65.4476 8.6839 65.8041 8.58204 66.0588 8.35285C66.288 8.12365 66.4663 7.89446 66.5936 7.6398L68.0706 8.40378C67.9433 8.65844 67.7396 8.9131 67.4849 9.21869C67.2302 9.49882 66.8992 9.75347 66.4917 9.9572C66.0588 10.2119 65.524 10.3137 64.8874 10.3137ZM63.1557 5.78078H66.4663C66.4408 5.37332 66.2625 5.04227 65.9824 4.78761C65.7023 4.53295 65.3203 4.40562 64.8619 4.40562C64.378 4.40562 63.9961 4.53295 63.7159 4.78761C63.4358 5.04227 63.2321 5.37332 63.1557 5.78078Z" fill="white"/>
<path d="M72.7818 10.3137C71.8651 10.3137 71.1011 10.11 70.5154 9.72801C69.9296 9.32055 69.5731 8.7603 69.4458 8.02179L71.1011 7.58887C71.1775 7.91992 71.2794 8.17458 71.4321 8.37831C71.5849 8.55657 71.7887 8.70937 72.0179 8.78577C72.2471 8.86217 72.5017 8.9131 72.7818 8.9131C73.1893 8.9131 73.4949 8.8367 73.6986 8.6839C73.9023 8.5311 74.0042 8.35285 74.0042 8.14912C74.0042 7.91993 73.9023 7.76713 73.7241 7.6398C73.5458 7.51247 73.2402 7.43607 72.8073 7.35967L72.3999 7.28327C71.916 7.18141 71.4576 7.05408 71.0502 6.90128C70.6427 6.72302 70.3116 6.49383 70.057 6.2137C69.8023 5.90811 69.675 5.55159 69.675 5.06773C69.675 4.35468 69.9296 3.81989 70.439 3.46337C70.9483 3.08138 71.6359 2.90312 72.4508 2.90312C73.2402 2.90312 73.9023 3.08139 74.4117 3.43791C74.921 3.79443 75.2775 4.25282 75.4303 4.81307L73.775 5.32239C73.6986 4.96587 73.5458 4.71121 73.3166 4.55841C73.0874 4.40562 72.8073 4.32922 72.4508 4.32922C72.0943 4.32922 71.8396 4.38015 71.6613 4.50748C71.4831 4.63481 71.3812 4.7876 71.3812 4.99133C71.3812 5.22052 71.4831 5.39879 71.6613 5.50065C71.8396 5.60251 72.0943 5.70438 72.4253 5.75531L72.8328 5.83171C73.3676 5.93358 73.8514 6.06091 74.2843 6.2137C74.7172 6.3665 75.0483 6.59569 75.303 6.87582C75.5576 7.15595 75.685 7.5634 75.685 8.04725C75.685 8.78576 75.4048 9.34602 74.8701 9.75348C74.4117 10.11 73.6986 10.3137 72.7818 10.3137Z" fill="white"/>
<path d="M78.2061 2.24101C77.875 2.24101 77.6204 2.13914 77.3912 1.93541C77.162 1.73168 77.0601 1.45156 77.0601 1.1205C77.0601 0.789445 77.162 0.509315 77.3912 0.305587C77.6204 0.101859 77.875 0 78.2061 0C78.5371 0 78.8173 0.101859 79.021 0.305587C79.2502 0.509315 79.3521 0.789445 79.3521 1.1205C79.3521 1.45156 79.2502 1.73168 79.021 1.93541C78.8173 2.13914 78.5371 2.24101 78.2061 2.24101ZM77.3148 10.11V3.05592H79.0974V10.11H77.3148Z" fill="white"/>
<path d="M80.7527 6.62116V6.39196C80.7527 5.65345 80.9055 5.0168 81.1856 4.48201C81.4657 3.94722 81.8732 3.56524 82.357 3.28511C82.8409 3.00499 83.3757 2.87766 83.9614 2.87766C84.5981 2.87766 85.0819 2.97952 85.413 3.20871C85.744 3.4379 85.9987 3.6671 86.126 3.92176H86.3807V3.08138H88.1378V11.3833C88.1378 11.8672 87.985 12.2491 87.7049 12.5293C87.4248 12.8094 87.0428 12.9622 86.5589 12.9622H81.8477V11.4088H85.9478C86.2024 11.4088 86.3552 11.256 86.3552 10.9758V9.14229H86.1006C85.9987 9.29509 85.8714 9.44788 85.6931 9.60068C85.5148 9.75347 85.2856 9.8808 85.0055 9.98267C84.7254 10.0845 84.3689 10.1355 83.9359 10.1355C83.3502 10.1355 82.8154 10.0081 82.3316 9.72801C81.8477 9.44788 81.4403 9.04043 81.1601 8.53111C80.88 8.02179 80.7527 7.35967 80.7527 6.62116ZM84.4707 8.58204C85.031 8.58204 85.4894 8.40377 85.8459 8.04725C86.2024 7.69073 86.4061 7.20688 86.4061 6.57023V6.41743C86.4061 5.78078 86.2279 5.27146 85.8714 4.9404C85.5148 4.58388 85.0565 4.43108 84.4962 4.43108C83.9359 4.43108 83.4776 4.60934 83.121 4.9404C82.7645 5.27146 82.5608 5.78078 82.5608 6.41743V6.57023C82.5608 7.20688 82.739 7.69073 83.121 8.04725C83.503 8.40377 83.9359 8.58204 84.4707 8.58204Z" fill="white"/>
<path d="M90.1751 10.11V3.05592H91.9323V3.97269H92.1869C92.2888 3.71803 92.518 3.48884 92.8236 3.25964C93.1292 3.03045 93.613 2.92859 94.2497 2.92859C94.8099 2.92859 95.2683 3.05592 95.7012 3.31058C96.1087 3.56524 96.4397 3.89629 96.6689 4.35468C96.8981 4.7876 97 5.32239 97 5.90811V10.11H95.2174V6.03544C95.2174 5.50065 95.09 5.11867 94.8354 4.83854C94.5807 4.58388 94.1987 4.43108 93.7149 4.43108C93.1546 4.43108 92.7472 4.60935 92.4416 4.96587C92.136 5.32239 91.9832 5.83171 91.9832 6.49383V10.0845H90.1751V10.11Z" fill="white"/>
</g>
</svg>
